<?xml version="1.0" encoding="utf-8"?>
<!-- Generator: Adobe Illustrator 16.0.0, SVG Export Plug-In . SVG Version: 6.00 Build 0)  -->
<!DOCTYPE svg PUBLIC "-//W3C//DTD SVG 1.1//EN" "http://www.w3.org/Graphics/SVG/1.1/DTD/svg11.dtd">
<svg version="1.1" id="Layer_1" xmlns="http://www.w3.org/2000/svg" xmlns:xlink="http://www.w3.org/1999/xlink" x="0px" y="0px"
	 width="40px" height="40px" viewBox="0 0 40 40" enable-background="new 0 0 40 40" xml:space="preserve">
<g id="Layer_1_1_" display="none">
	<g display="inline">
		<path fill="#FFFFFF" stroke="#010101" stroke-miterlimit="10" d="M16.734,19.708l-5.884-8.516C9.374,9.057,8.904,6.822,9.8,6.204
			c0.896-0.619,2.82,0.612,4.295,2.748l5.035,7.288"/>
		<path fill="#FFFFFF" stroke="#010101" stroke-miterlimit="10" d="M19.13,23.176l2.589,3.745l6.84,9.897
			c0.084,0.005,0.166,0.015,0.252,0.015c1.398,0,2.699-0.39,3.82-1.054c2.199-1.309,3.678-3.7,3.678-6.444
			c0-4.142-3.354-7.498-7.498-7.498c-1.77,0-3.395,0.617-4.678,1.646l-2.607-3.773"/>
		<path fill="#FFFFFF" stroke="#010101" stroke-miterlimit="10" d="M21.525,19.708l5.885-8.516c1.477-2.135,1.945-4.37,1.051-4.988
			c-0.896-0.619-2.82,0.612-4.295,2.748L19.13,16.24"/>
		<line fill="none" stroke="#010101" stroke-miterlimit="10" x1="16.734" y1="19.708" x2="19.576" y2="15.596"/>
		<path fill="#FFFFFF" stroke="#010101" stroke-miterlimit="10" d="M16.734,19.708l-2.607,3.772
			c-1.283-1.026-2.907-1.645-4.678-1.645c-4.142,0-7.498,3.357-7.498,7.498c0,2.744,1.479,5.137,3.678,6.443
			c1.12,0.664,2.423,1.055,3.82,1.055c0.086,0,0.168-0.01,0.253-0.014l6.84-9.898l2.588-3.745"/>
		<path fill="#FFFFFF" stroke="#010101" stroke-miterlimit="10" d="M11.973,26.598c-0.723-0.766-1.741-1.248-2.876-1.248
			c-2.191,0-3.966,1.776-3.966,3.967c0,1.647,1.005,3.06,2.436,3.658L11.973,26.598z"/>
		<path fill="#FFFFFF" stroke="#010101" stroke-miterlimit="10" d="M26.287,26.598l4.406,6.377c1.43-0.6,2.436-2.011,2.436-3.658
			c0-2.189-1.775-3.967-3.967-3.967C28.027,25.35,27.01,25.832,26.287,26.598z"/>
		<line fill="none" stroke="#010101" stroke-miterlimit="10" x1="21.883" y1="19.192" x2="18.834" y2="23.605"/>
		
			<line opacity="0.6" fill="none" stroke="#010101" stroke-miterlimit="10" enable-background="new    " x1="21.883" y1="20.66" x2="19.805" y2="23.668"/>
	</g>
	
		<circle display="inline" fill="#FFFFFF" stroke="#010101" stroke-width="0.5" stroke-miterlimit="10" cx="19.13" cy="19.708" r="1.023"/>
	
		<line display="inline" fill="none" stroke="#010101" stroke-width="0.5" stroke-miterlimit="10" x1="19.805" y1="18.945" x2="18.566" y2="20.73"/>
</g>
<g id="Layer_2">
	<path fill="#FFFFFF" stroke="#010101" stroke-miterlimit="10" d="M13.856,37.164c-3.313,0-9.152-3.166-10.436-4.633
		c-1.694-1.932-2.195-7.404-0.753-9.402c2.979-4.125,4.016-4.208,4.51-5.874C9.681,8.81,8.543,9.316,11.769,6.849
		c3.226-2.466,6.958-0.639,8.767,0.755c1.808,1.394,3.899,1.134,5.981,1.93c3.856,1.475,15.084,3.564,9.082,13.294
		c-0.199,1.887-1.482,4.627-2.402,7.168c-1.531,4.223-5.312,5.293-7.652,4.914C16.36,33.424,17.878,37.164,13.856,37.164z"/>
	<path opacity="0.6" fill="#FFFFFF" stroke="#010101" stroke-miterlimit="10" enable-background="new    " d="M18.351,35.178
		c0,0,1.617-3.711,3.842-3.99c2.228-0.278,4.123-4.278,4.123-4.278"/>
</g>
</svg>
