<?xml version="1.0" encoding="utf-8"?>
<!-- Generator: Adobe Illustrator 16.0.0, SVG Export Plug-In . SVG Version: 6.00 Build 0)  -->
<!DOCTYPE svg PUBLIC "-//W3C//DTD SVG 1.1//EN" "http://www.w3.org/Graphics/SVG/1.1/DTD/svg11.dtd">
<svg version="1.1" xmlns="http://www.w3.org/2000/svg" xmlns:xlink="http://www.w3.org/1999/xlink" x="0px" y="0px"
	 width="306.679px" height="286.275px" viewBox="0 0 306.679 286.275" enable-background="new 0 0 306.679 286.275"
	 xml:space="preserve">
<g id="Layer_1" display="none">
	<g display="inline">
		<g>
			<path fill="#FFFFFF" d="M27.58,155.01c0-68.529,0-137.06,0-205.727c57.882,0,115.764,0,173.646,0
				c-0.796,0.235-1.581,0.623-2.391,0.682c-15.135,1.111-30.854,15.191-27.761,35.84c2.799,18.687,20.285,28.587,35.855,26.009
				c13.428-2.223,25.029-13.576,26.121-28.184c1.352-18.1-11.509-30.522-24.424-33.141c-1.959-0.397-3.916-0.805-5.873-1.207
				c26.14,0,52.28,0,78.42,0c0,26.31,0,52.62,0,78.93c-0.243-0.781-0.603-1.547-0.713-2.346
				c-1.169-8.46-10.526-14.524-18.759-12.259c-4.745,1.306-7.864,4.553-10.461,8.384c-6.705,9.893-13.264,19.885-19.947,29.792
				c-2.811,4.167-1.61,4.318-6.452,1.554C193.87,35.654,162.92,17.93,131.934,0.271c-4.439-2.529-9.113-4.037-14.298-2.105
				c-4.794,1.786-7.633,5.452-9.81,9.804c-9.898,19.792-19.792,39.586-29.668,59.39c-0.64,1.283-1.187,2.623-1.668,3.975
				c-2.203,6.191-0.178,12.735,5.218,16.998c4.831,3.817,11.822,4.153,17.107,0.894c3.242-2,5.261-4.993,6.912-8.282
				c7.415-14.782,14.83-29.565,22.165-44.388c0.944-1.908,1.829-2.219,3.668-1.128c5.537,3.284,11.102,6.53,16.779,9.562
				c2.186,1.168,2.414,2.55,1.97,4.721c-2.874,14.044-5.565,28.126-8.506,42.154c-0.905,4.317-1.056,8.826-3.738,12.743
				c-7.466,10.902-14.763,21.922-22.013,32.97c-1.17,1.783-2.419,2.425-4.525,2.419c-22.824-0.069-45.648-0.057-68.472-0.032
				c-6.819,0.008-13.254,5.3-14.672,11.923C28.156,152.938,27.849,153.97,27.58,155.01z"/>
			<path fill-rule="evenodd" clip-rule="evenodd" d="M27.58,155.01c0.269-1.04,0.576-2.072,0.801-3.122
				c1.418-6.623,7.854-11.915,14.672-11.923c22.824-0.024,45.648-0.037,68.472,0.032c2.106,0.006,3.355-0.636,4.525-2.419
				c7.25-11.048,14.546-22.067,22.013-32.97c2.683-3.917,2.833-8.426,3.738-12.743c2.941-14.028,5.632-28.11,8.506-42.154
				c0.444-2.171,0.216-3.553-1.97-4.721c-5.677-3.032-11.242-6.278-16.779-9.562c-1.839-1.091-2.724-0.78-3.668,1.128
				c-7.334,14.822-14.75,29.605-22.165,44.388c-1.65,3.289-3.669,6.282-6.912,8.282c-5.286,3.26-12.276,2.924-17.107-0.894
				c-5.396-4.263-7.421-10.807-5.218-16.998c0.481-1.353,1.028-2.692,1.668-3.975c9.876-19.803,19.77-39.598,29.668-59.39
				c2.176-4.352,5.016-8.019,9.81-9.804c5.185-1.932,9.859-0.424,14.298,2.105c30.986,17.66,61.937,35.384,92.908,53.068
				c4.842,2.764,3.642,2.614,6.452-1.554c6.684-9.908,13.242-19.9,19.947-29.792c2.597-3.831,5.716-7.079,10.461-8.384
				c8.232-2.266,17.59,3.799,18.759,12.259c0.11,0.799,0.47,1.565,0.713,2.346c0,0.17,0,0.339,0,0.509
				c-1.473,3.466-2.479,7.234-4.5,10.345c-9.466,14.578-19.195,28.985-28.876,43.423c-1.077,1.606-2.312,3.156-3.699,4.498
				c-4.204,4.063-10.16,6.082-16.307,3.114c-1.828-0.883-3.678-1.735-5.438-2.739c-13.473-7.677-26.925-15.391-40.389-23.083
				c-0.777-0.444-1.602-0.807-2.545-1.278c-0.339,0.801-0.658,1.311-0.771,1.863c-1.549,7.607-3.098,15.214-4.586,22.832
				c-0.938,4.807-0.893,4.815,4.077,4.816c1.867,0.001,3.751,0.16,5.599-0.027c7.908-0.805,13.023,3.264,16.821,9.566
				c9.579,15.9,19.133,31.815,28.645,47.756c6.078,10.186,12.384,20.255,17.997,30.693c4.989,9.281-0.885,19.963-11.312,21.689
				c-0.545,0.09-1.044,0.451-1.564,0.686c-0.34,0-0.679,0-1.019,0c-0.447-0.217-0.881-0.586-1.344-0.628
				c-4.555-0.405-7.982-2.769-10.525-6.355c-2.396-3.379-4.573-6.921-6.71-10.472c-11.967-19.89-23.911-39.793-35.798-59.731
				c-1.075-1.805-2.25-2.668-4.425-2.524c-2.955,0.193-5.944,0.201-8.898-0.002c-2.235-0.154-3.515,0.657-4.73,2.506
				c-7.997,12.166-16.067,24.284-24.211,36.351c-3.815,5.653-8.766,8.778-16.112,8.693c-25.781-0.298-51.567-0.106-77.351-0.127
				c-7.014-0.005-13.189-4.938-14.77-11.682c-0.266-1.133-0.568-2.258-0.853-3.386C27.58,155.35,27.58,155.18,27.58,155.01z"/>
			<path fill-rule="evenodd" clip-rule="evenodd" fill="#FFFFFF" d="M27.58,155.52c0.285,1.128,0.587,2.253,0.853,3.386
				c1.58,6.744,7.755,11.677,14.77,11.682c25.784,0.021,51.57-0.171,77.351,0.127c7.347,0.085,12.297-3.04,16.112-8.693
				c8.144-12.066,16.214-24.185,24.211-36.351c1.216-1.849,2.495-2.66,4.73-2.506c2.954,0.203,5.943,0.195,8.898,0.002
				c2.175-0.144,3.35,0.72,4.425,2.524c11.887,19.938,23.831,39.842,35.798,59.731c2.137,3.551,4.314,7.093,6.71,10.472
				c2.543,3.587,5.971,5.95,10.525,6.355c0.463,0.042,0.896,0.411,1.344,0.628c-68.575,0-137.151,0-205.727,0
				C27.58,187.06,27.58,171.289,27.58,155.52z"/>
			<path fill-rule="evenodd" clip-rule="evenodd" fill="#FFFFFF" d="M234.325,202.877c0.521-0.234,1.02-0.596,1.564-0.686
				c10.428-1.727,16.302-12.408,11.312-21.689c-5.613-10.438-11.919-20.508-17.997-30.693c-9.512-15.94-19.065-31.855-28.645-47.756
				c-3.798-6.303-8.913-10.371-16.821-9.566c-1.848,0.188-3.731,0.028-5.599,0.027c-4.97-0.001-5.016-0.01-4.077-4.816
				c1.488-7.618,3.037-15.225,4.586-22.832c0.112-0.552,0.432-1.062,0.771-1.863c0.943,0.471,1.768,0.834,2.545,1.278
				c13.464,7.692,26.916,15.406,40.389,23.083c1.761,1.004,3.61,1.856,5.438,2.739c6.146,2.968,12.103,0.949,16.307-3.114
				c1.388-1.342,2.622-2.892,3.699-4.498c9.681-14.438,19.41-28.845,28.876-43.423c2.021-3.111,3.027-6.879,4.5-10.345
				c0,58.051,0,116.103,0,174.155C265.558,202.877,249.941,202.877,234.325,202.877z"/>
			<path fill-rule="evenodd" clip-rule="evenodd" d="M202.754-50.717c1.957,0.402,3.914,0.81,5.873,1.207
				c12.915,2.618,25.775,15.041,24.424,33.141c-1.092,14.607-12.693,25.961-26.121,28.184c-15.57,2.578-33.057-7.323-35.855-26.009
				c-3.093-20.648,12.626-34.729,27.761-35.84c0.81-0.06,1.595-0.447,2.391-0.682C201.735-50.717,202.244-50.717,202.754-50.717z"/>
		</g>
	</g>
	<g id="IKhMTt_1_" display="inline">
	</g>
</g>
<g id="Layer_2">
	<circle fill="#5A5146" cx="193.865" cy="52.042" r="30.719"/>
	<g>
		<g>
			<path fill="#5A5146" d="M105.044,98c37.328,20.508,74.656,41.016,111.985,61.523c7.167,3.938,16.312,1.807,20.522-5.381
				c4.048-6.911,1.775-16.592-5.382-20.523c-37.328-20.508-74.656-41.016-111.984-61.523c-7.167-3.938-16.312-1.806-20.523,5.382
				C95.614,84.388,97.887,94.068,105.044,98L105.044,98z"/>
		</g>
	</g>
	<g>
		<g>
			<path fill="#5A5146" d="M96.851,79.921c-14.448,18.878-28.896,37.757-43.344,56.636c-4.983,6.512-1.016,16.776,5.381,20.523
				c7.716,4.521,15.564,1.098,20.523-5.381c14.448-18.879,28.896-37.758,43.344-56.637c4.983-6.512,1.016-16.776-5.381-20.523
				C109.657,70.019,101.81,73.441,96.851,79.921L96.851,79.921z"/>
		</g>
	</g>
	<g>
		<g>
			<path fill="#5A5146" d="M254.991,82.19c-14.448,18.878-28.896,37.756-43.344,56.634c-4.982,6.512-1.016,16.776,5.382,20.523
				c7.716,4.521,15.563,1.098,20.522-5.381c14.448-18.879,28.896-37.757,43.344-56.635c4.982-6.512,1.016-16.776-5.382-20.523
				C267.798,72.288,259.95,75.711,254.991,82.19L254.991,82.19z"/>
		</g>
	</g>
	<g>
		<g>
			<path fill="#5A5146" d="M136.191,164.773c-14.448,18.879-28.896,37.758-43.343,56.637c-4.982,6.512-1.016,16.776,5.381,20.523
				c7.716,4.521,15.564,1.098,20.523-5.381c14.448-18.879,28.896-37.758,43.343-56.637c4.982-6.512,1.016-16.776-5.382-20.523
				C148.998,154.872,141.15,158.295,136.191,164.773L136.191,164.773z"/>
		</g>
	</g>
	<g>
		<g>
			<path fill="#5A5146" d="M144.559,111.822c-3.587,20.712-7.175,41.424-10.763,62.137c-1.394,8.049,2.028,16.128,10.476,18.451
				c7.297,2.008,17.056-2.411,18.452-10.477c3.588-20.712,7.176-41.424,10.764-62.137c1.395-8.049-2.027-16.128-10.477-18.451
				C155.715,99.338,145.957,103.757,144.559,111.822L144.559,111.822z"/>
		</g>
	</g>
	<g>
		<g>
			<path fill="#5A5146" d="M239.129,251.834c-14.142-24.977-28.282-49.953-42.424-74.93c-4.022-7.104-13.544-9.469-20.522-5.381
				c-7.121,4.171-9.411,13.405-5.382,20.523c14.142,24.977,28.282,49.953,42.424,74.93c4.022,7.104,13.544,9.469,20.522,5.381
				C240.868,268.187,243.158,258.952,239.129,251.834L239.129,251.834z"/>
		</g>
	</g>
	<g>
		<g>
			<path fill="#5A5146" d="M184.915,165.549c-10.429-1.543-20.857-3.085-31.286-4.627c-8.082-1.195-16.088,1.883-18.452,10.477
				c-1.966,7.147,2.375,17.253,10.477,18.451c10.429,1.543,20.857,3.085,31.286,4.627c8.081,1.195,16.088-1.883,18.451-10.477
				C197.358,176.853,193.018,166.747,184.915,165.549L184.915,165.549z"/>
		</g>
	</g>
	<g>
		<g>
			<path fill="#5A5146" d="M108.563,214.855c-23.412-4.128-46.823-8.256-70.234-12.383c-8.045-1.419-16.133,2.045-18.452,10.477
				c-2.012,7.314,2.417,17.03,10.477,18.451c23.412,4.128,46.823,8.256,70.234,12.383c8.045,1.419,16.133-2.045,18.452-10.477
				C121.052,225.992,116.624,216.276,108.563,214.855L108.563,214.855z"/>
		</g>
	</g>
</g>
</svg>
