<?xml version="1.0" encoding="utf-8"?>
<!-- Generator: Adobe Illustrator 16.0.0, SVG Export Plug-In . SVG Version: 6.00 Build 0)  -->
<!DOCTYPE svg PUBLIC "-//W3C//DTD SVG 1.1//EN" "http://www.w3.org/Graphics/SVG/1.1/DTD/svg11.dtd">
<svg version="1.1" id="Layer_1" xmlns="http://www.w3.org/2000/svg" xmlns:xlink="http://www.w3.org/1999/xlink" x="0px" y="0px"
	 width="40px" height="40px" viewBox="0 0 40 40" enable-background="new 0 0 40 40" xml:space="preserve">
<g>
	<path fill="#FFFFFF" stroke="#010101" stroke-miterlimit="10" d="M17.409,19.669l-5.884-8.516c-1.476-2.135-1.946-4.37-1.05-4.988
		c0.896-0.619,2.82,0.612,4.295,2.748l5.035,7.288"/>
	<path fill="#FFFFFF" stroke="#010101" stroke-miterlimit="10" d="M19.805,23.137l2.589,3.745l6.84,9.897
		c0.084,0.005,0.166,0.015,0.252,0.015c1.397,0,2.699-0.39,3.82-1.054c2.198-1.309,3.678-3.7,3.678-6.444
		c0-4.142-3.355-7.498-7.498-7.498c-1.771,0-3.396,0.617-4.678,1.646L22.2,19.669"/>
	<path fill="#FFFFFF" stroke="#010101" stroke-miterlimit="10" d="M22.2,19.669l5.885-8.516c1.478-2.135,1.944-4.37,1.051-4.988
		c-0.896-0.619-2.819,0.612-4.295,2.748l-5.036,7.288"/>
	<line fill="#FFFFFF" stroke="#010101" stroke-miterlimit="10" x1="17.409" y1="19.669" x2="20.251" y2="15.557"/>
	<path fill="#FFFFFF" stroke="#010101" stroke-miterlimit="10" d="M17.409,19.669l-2.607,3.772
		c-1.283-1.026-2.907-1.645-4.678-1.645c-4.142,0-7.498,3.357-7.498,7.498c0,2.744,1.479,5.137,3.678,6.444
		c1.12,0.663,2.423,1.054,3.82,1.054c0.086,0,0.168-0.01,0.253-0.014l6.84-9.898l2.588-3.744"/>
	<path fill="#FFFFFF" stroke="#010101" stroke-miterlimit="10" d="M12.648,26.559c-0.723-0.766-1.741-1.248-2.876-1.248
		c-2.191,0-3.966,1.776-3.966,3.967c0,1.647,1.005,3.06,2.436,3.658L12.648,26.559z"/>
	<path fill="#FFFFFF" stroke="#010101" stroke-miterlimit="10" d="M26.962,26.559l4.406,6.377c1.43-0.6,2.437-2.011,2.437-3.658
		c0-2.189-1.775-3.967-3.968-3.967C28.702,25.311,27.686,25.793,26.962,26.559z"/>
	<line fill="#FFFFFF" stroke="#010101" stroke-miterlimit="10" x1="22.559" y1="19.153" x2="19.509" y2="23.566"/>
	
		<line opacity="0.6" fill="#FFFFFF" stroke="#010101" stroke-width="2" stroke-miterlimit="10" enable-background="new    " x1="22.559" y1="20.621" x2="20.479" y2="23.629"/>
</g>
<circle fill="#FFFFFF" stroke="#010101" stroke-width="0.5" stroke-miterlimit="10" cx="19.804" cy="19.669" r="1.023"/>
<line fill="#FFFFFF" stroke="#010101" stroke-width="0.5" stroke-miterlimit="10" x1="20.479" y1="18.906" x2="19.241" y2="20.691"/>
</svg>
