<?xml version="1.0" encoding="utf-8"?>
<!-- Generator: Adobe Illustrator 16.0.0, SVG Export Plug-In . SVG Version: 6.00 Build 0)  -->
<!DOCTYPE svg PUBLIC "-//W3C//DTD SVG 1.1//EN" "http://www.w3.org/Graphics/SVG/1.1/DTD/svg11.dtd">
<svg version="1.1" id="Layer_1" xmlns="http://www.w3.org/2000/svg" xmlns:xlink="http://www.w3.org/1999/xlink" x="0px" y="0px"
	 width="40px" height="40px" viewBox="0 0 40 40" enable-background="new 0 0 40 40" xml:space="preserve">
<g>
	<path fill="#FFFFFF" stroke="#010101" stroke-miterlimit="10" d="M17.409,19.669l-5.884-8.516c-1.476-2.135-1.946-4.37-1.05-4.988
		c0.896-0.619,2.82,0.612,4.295,2.748l5.035,7.288"/>
	<path fill="#FFFFFF" stroke="#010101" stroke-miterlimit="10" d="M22.2,19.669l5.885-8.516c1.478-2.135,1.944-4.37,1.051-4.988
		c-0.896-0.619-2.819,0.612-4.295,2.748l-5.036,7.288"/>
	<line fill="#FFFFFF" stroke="#010101" stroke-miterlimit="10" x1="17.409" y1="19.669" x2="20.251" y2="15.557"/>
	<g>
		<path fill="#FFFFFF" stroke="#010101" stroke-miterlimit="10" d="M17.409,19.669l-2.607,3.772
			c-1.283-1.026-2.907-1.645-4.678-1.645c-4.142,0-7.498,3.357-7.498,7.498c0,2.744,1.479,5.137,3.678,6.444
			c1.12,0.663,2.423,1.054,3.82,1.054c0.086,0,0.168-0.01,0.253-0.014l6.84-9.898l2.588-3.744L17.409,19.669z M8.242,32.936
			c-1.431-0.599-2.436-2.011-2.436-3.658c0-2.19,1.775-3.967,3.966-3.967c1.135,0,2.153,0.482,2.876,1.248L8.242,32.936z"/>
	</g>
	<g>
		<path fill="#FFFFFF" stroke="#010101" stroke-miterlimit="10" d="M29.486,21.798c-1.771,0-3.396,0.617-4.678,1.646L22.2,19.669
			l-2.395,3.468l2.589,3.745l6.84,9.897c0.084,0.005,0.166,0.015,0.252,0.015c1.397,0,2.699-0.39,3.82-1.054
			c2.198-1.309,3.678-3.7,3.678-6.444C36.984,25.154,33.629,21.798,29.486,21.798z M31.368,32.936l-4.406-6.377
			c0.724-0.766,1.74-1.248,2.875-1.248c2.192,0,3.968,1.777,3.968,3.967C33.805,30.925,32.798,32.336,31.368,32.936z"/>
	</g>
	<line fill="#FFFFFF" stroke="#010101" stroke-miterlimit="10" x1="22.559" y1="19.153" x2="19.509" y2="23.566"/>
	
		<rect x="17.63" y="15.814" transform="matrix(0.8281 0.5605 -0.5605 0.8281 15.1372 -6.8077)" fill="#FFFFFF" stroke="#FFFFFF" stroke-width="0.75" stroke-miterlimit="10" width="2.08" height="10.932"/>
</g>
<line fill="#FFFFFF" stroke="#010101" stroke-width="0.5" stroke-miterlimit="10" x1="20.479" y1="18.906" x2="19.241" y2="20.691"/>
</svg>
